# xmcd
#
# Track frame offsets:
#	150
#	17340
#	37132
#	55662
#	76452
#	94117
#	115520
#	133647
#	150807
#	168405
#
# Disc length: 2435 seconds
#
# Revision: 3
# Processed by: cddbd v1.5.2PL0 Copyright (c) Steve Scherf et al.
# Submitted via: EasyCDDAExtractor 11.9.9.666
#
DISCID=6909810a
DTITLE=Astor Piazzolla - Os Grandes Sucessos de Astor Piazzolla
DYEAR=1900
DGENRE=Tango
TTITLE0=Lo Que Vendra
TTITLE1=Milonga Triste
TTITLE2=Los Mareados
TTITLE3=Balada Para Un Loco
TTITLE4=Cafetin de Buenos Aires
TTITLE5=Adios Nonino
TTITLE6=Maquillaje
TTITLE7=Sideral
TTITLE8=Buenos Aires Hora Cero
TTITLE9=Fracanapa
EXTD=
EXTT0=
EXTT1=
EXTT2=
EXTT3=
EXTT4=
EXTT5=
EXTT6=
EXTT7=
EXTT8=
EXTT9=
PLAYORDER=
